<svg width="450" height="345" viewBox="0 0 450 345" fill="none" xmlns="http://www.w3.org/2000/svg">
<path d="M26.8128 209.167C-25.0013 248.887 -0.371557 360.833 129.597 294.167C177.167 269.767 257.016 260.833 337.717 280" stroke="#C33507" stroke-width="3"/>
<path d="M57.3929 0H43.8015C42.8632 0 42.1025 0.746192 42.1025 1.66667V301.667C42.1025 302.587 42.8632 303.333 43.8015 303.333H57.3929C58.3312 303.333 59.0918 302.587 59.0918 301.667V1.66667C59.0918 0.746192 58.3312 0 57.3929 0Z" fill="url(#paint0_linear_84_2)"/>
<path d="M55.6939 11.6666H45.5004C34.2409 11.6666 25.1133 20.6209 25.1133 31.6666V271.667C25.1133 282.712 34.2409 291.667 45.5004 291.667H55.6939C66.9534 291.667 76.081 282.712 76.081 271.667V31.6666C76.081 20.6209 66.9534 11.6666 55.6939 11.6666Z" fill="url(#paint1_linear_84_2)"/>
<mask id="mask0_84_2" style="mask-type:alpha" maskUnits="userSpaceOnUse" x="25" y="11" width="52" height="281">
<path d="M55.6939 11.6666H45.5004C34.2409 11.6666 25.1133 20.6209 25.1133 31.6666V271.667C25.1133 282.712 34.2409 291.667 45.5004 291.667H55.6939C66.9534 291.667 76.081 282.712 76.081 271.667V31.6666C76.081 20.6209 66.9534 11.6666 55.6939 11.6666Z" fill="#D9D9D9"/>
</mask>
<g mask="url(#mask0_84_2)">
<path d="M32.6408 95.0467C38.2972 92.8091 41.0335 86.4969 38.7527 80.948C36.4718 75.3991 30.0374 72.7147 24.3811 74.9522C18.7248 77.1898 15.9884 83.502 18.2693 89.0509C20.5501 94.5998 26.9845 97.2842 32.6408 95.0467Z" stroke="#EDEDED" stroke-width="3"/>
<path d="M22.7164 67.743C22.7478 64.5799 25.3895 62.0394 28.6161 62.0679C31.8429 62.0967 34.4347 64.6844 34.4033 67.8477L34.3663 71.4004L36.9177 68.9467C39.2216 66.7302 42.9222 66.762 45.1818 69.019C47.441 71.2762 47.4043 74.9039 45.1004 77.1205L42.7161 79.4149L46.1505 79.4445C49.3771 79.4735 51.9676 82.0619 51.9362 85.225L51.9248 85.5192C51.7383 88.5442 49.1624 90.9279 46.0365 90.9004L42.4854 90.8695L44.94 93.3207C47.1993 95.5777 47.1636 99.2049 44.8602 101.422L44.639 101.623C42.3254 103.634 38.785 103.536 36.5961 101.349L34.0941 98.8484L34.0611 102.215C34.0307 105.28 31.5508 107.761 28.4625 107.887L28.1615 107.89C24.9347 107.862 22.3452 105.275 22.3763 102.111L22.4077 98.9542L20.0705 101.202C17.7666 103.418 14.0668 103.384 11.8073 101.128C9.54837 98.8705 9.58439 95.2447 11.8878 93.0282L14.3915 90.6197L10.9796 90.5884C7.85385 90.5605 5.32469 88.132 5.19784 85.1045L5.19299 84.8099C5.22441 81.6464 7.86679 79.1039 11.0937 79.1325L14.3873 79.1634L12.049 76.8259C9.86038 74.6394 9.82513 71.1679 11.9193 68.9379L12.1295 68.7265C14.4334 66.51 18.1325 66.5424 20.3919 68.7995L22.6836 71.0887L22.7164 67.743ZM28.5852 65.4004C27.232 65.3885 26.1278 66.4552 26.1146 67.7764L26.0813 71.1205L26.0211 77.0322C25.7908 77.1017 25.5614 77.1807 25.3338 77.2707C25.0438 77.3855 24.7634 77.5142 24.4938 77.6557L20.2589 73.4239L17.9672 71.1345C17.0233 70.1924 15.4744 70.1764 14.5082 71.1059C13.5434 72.0345 13.5313 73.5494 14.4738 74.4909L16.8114 76.8267L21.0329 81.0429C20.7694 81.5229 20.5542 82.0274 20.3904 82.5484L14.3564 82.496L11.0619 82.4672C9.7086 82.4554 8.60382 83.5205 8.59071 84.8417C8.57776 86.1612 9.65894 87.2437 11.0105 87.2557L14.4218 87.2857L20.3561 87.3389C20.4341 87.5995 20.5268 87.8587 20.6325 88.1159C20.746 88.3922 20.8726 88.6595 21.0119 88.917L16.7703 92.9992L14.2665 95.4075C13.3018 96.336 13.2897 97.851 14.2321 98.7925C15.1758 99.7349 16.7255 99.7519 17.6917 98.8225L20.0268 96.5739L24.4493 92.3184C24.9014 92.5594 25.3749 92.7597 25.8637 92.917L25.8039 98.9865L25.7724 102.144C25.7595 103.463 26.8407 104.546 28.1924 104.558C29.5452 104.57 30.6499 103.504 30.6635 102.183L30.6964 98.8165L30.7527 93.0345C31.0661 92.95 31.3789 92.85 31.6876 92.728C31.9341 92.6304 32.1718 92.5195 32.4035 92.4027L36.519 96.5134L39.0203 99.0125C39.964 99.955 41.5136 99.9719 42.48 99.0427C43.4448 98.1144 43.4581 96.5989 42.516 95.6572L40.0606 93.2047L35.9204 89.0687C36.2074 88.565 36.442 88.0342 36.6177 87.4835L42.5157 87.5355L46.0674 87.5677C47.4205 87.5795 48.5248 86.5129 48.538 85.1917C48.5508 83.8725 47.4709 82.7895 46.1196 82.777L42.6854 82.7475L36.6722 82.6939C36.592 82.422 36.4991 82.151 36.3888 81.8829C36.2866 81.6339 36.1704 81.3935 36.047 81.1599L40.3368 77.034L42.7217 74.741C43.6866 73.8129 43.6995 72.2972 42.7576 71.3555C41.814 70.413 40.2644 70.3964 39.2981 71.3255L36.7458 73.7812L32.6483 77.7222C32.0987 77.4219 31.5163 77.1832 30.9129 77.0082L30.9686 71.3685L31.0051 67.8144C31.018 66.495 29.9367 65.4125 28.5852 65.4004Z" fill="#EDEDED"/>
<path d="M70.0172 131.713C75.6735 129.476 78.4099 123.164 76.129 117.615C73.8481 112.066 67.4138 109.381 61.7574 111.619C56.1011 113.857 53.3648 120.169 55.6456 125.718C57.9265 131.267 64.3608 133.951 70.0172 131.713Z" stroke="#EDEDED" stroke-width="3"/>
<path d="M60.0927 104.41C60.1242 101.247 62.7658 98.7061 65.9924 98.7346C69.2192 98.7634 71.8111 101.351 71.7796 104.514L71.7426 108.067L74.294 105.613C76.598 103.397 80.2985 103.429 82.5581 105.686C84.8173 107.943 84.7807 111.571 82.4767 113.787L80.0925 116.082L83.5268 116.111C86.7534 116.14 89.344 118.729 89.3125 121.892L89.3011 122.186C89.1146 125.211 86.5387 127.595 83.4129 127.567L79.8618 127.536L82.3164 129.987C84.5756 132.244 84.5399 135.872 82.2365 138.088L82.0153 138.29C79.7017 140.301 76.1613 140.202 73.9724 138.016L71.4704 135.515L71.4375 138.882C71.4071 141.946 68.9271 144.428 65.8388 144.554L65.5378 144.557C62.311 144.528 59.7215 141.941 59.7526 138.778L59.784 135.621L57.4468 137.869C55.1429 140.085 51.4432 140.051 49.1836 137.794C46.9247 135.537 46.9607 131.911 49.2641 129.695L51.7678 127.286L48.356 127.255C45.2302 127.227 42.701 124.799 42.5741 121.771L42.5693 121.477C42.6008 118.313 45.2431 115.771 48.47 115.799L51.7636 115.83L49.4253 113.493C47.2368 111.306 47.2015 107.835 49.2957 105.605L49.5057 105.393C51.8098 103.177 55.5089 103.209 57.7683 105.466L60.0599 107.755L60.0927 104.41ZM65.9615 102.067C64.6083 102.055 63.5042 103.122 63.4909 104.443L63.4576 107.787L63.3975 113.699C63.1671 113.768 62.9377 113.847 62.7101 113.937C62.4201 114.052 62.1398 114.181 61.8701 114.322L57.6352 110.091L55.3436 107.801C54.3996 106.859 52.8507 106.843 51.8845 107.773C50.9197 108.701 50.9077 110.216 51.8501 111.158L54.1878 113.493L58.4093 117.71C58.1458 118.19 57.9305 118.694 57.7667 119.215L51.7327 119.163L48.4383 119.134C47.0849 119.122 45.9801 120.187 45.967 121.508C45.9541 122.828 47.0353 123.91 48.3868 123.922L51.7981 123.952L57.7324 124.006C57.8104 124.266 57.9031 124.525 58.0088 124.783C58.1223 125.059 58.2489 125.326 58.3882 125.584L54.1467 129.666L51.6428 132.074C50.6781 133.003 50.6661 134.518 51.6085 135.459C52.5522 136.402 54.1018 136.419 55.068 135.489L57.4032 133.241L61.8256 128.985C62.2777 129.226 62.7512 129.426 63.24 129.584L63.1802 135.653L63.1488 138.811C63.1358 140.13 64.217 141.213 65.5687 141.225C66.9216 141.236 68.0262 140.171 68.0398 138.85L68.0727 135.483L68.129 129.701C68.4424 129.617 68.7552 129.517 69.0639 129.395C69.3104 129.297 69.5481 129.186 69.7798 129.069L73.8953 133.18L76.3966 135.679C77.3404 136.622 78.89 136.639 79.8563 135.709C80.8211 134.781 80.8344 133.266 79.8923 132.324L77.4369 129.871L73.2968 125.735C73.5837 125.232 73.8183 124.701 73.994 124.15L79.892 124.202L83.4438 124.234C84.7968 124.246 85.9011 123.18 85.9143 121.858C85.9271 120.539 84.8472 119.456 83.4959 119.444L80.0617 119.414L74.0485 119.361C73.9684 119.089 73.8754 118.818 73.7652 118.55C73.6629 118.301 73.5467 118.06 73.4233 117.827L77.7131 113.701L80.0981 111.408C81.0629 110.48 81.0758 108.964 80.1339 108.022C79.1903 107.08 77.6408 107.063 76.6744 107.992L74.1221 110.448L70.0246 114.389C69.475 114.089 68.8926 113.85 68.2892 113.675L68.3449 108.035L68.3814 104.481C68.3944 103.162 67.313 102.079 65.9615 102.067Z" fill="#EDEDED"/>
<path d="M32.6408 168.38C38.2972 166.142 41.0335 159.83 38.7527 154.281C36.4718 148.732 30.0374 146.048 24.3811 148.285C18.7248 150.523 15.9884 156.835 18.2693 162.384C20.5501 167.933 26.9845 170.617 32.6408 168.38Z" stroke="#EDEDED" stroke-width="3"/>
<path d="M22.7164 141.077C22.7478 137.913 25.3895 135.373 28.6161 135.401C31.8429 135.43 34.4347 138.018 34.4033 141.181L34.3663 144.734L36.9177 142.28C39.2216 140.064 42.9222 140.096 45.1818 142.353C47.441 144.61 47.4043 148.237 45.1004 150.454L42.7161 152.748L46.1505 152.778C49.3771 152.807 51.9676 155.395 51.9362 158.559L51.9248 158.853C51.7383 161.878 49.1624 164.261 46.0365 164.234L42.4854 164.203L44.94 166.654C47.1993 168.912 47.1636 172.538 44.8602 174.755L44.639 174.957C42.3254 176.967 38.785 176.868 36.5961 174.683L34.0941 172.182L34.0611 175.548C34.0307 178.613 31.5508 181.095 28.4625 181.22L28.1615 181.223C24.9347 181.195 22.3452 178.608 22.3763 175.445L22.4077 172.288L20.0705 174.535C17.7666 176.752 14.0668 176.718 11.8073 174.462C9.54837 172.203 9.58439 168.578 11.8878 166.362L14.3915 163.953L10.9796 163.922C7.85385 163.894 5.32469 161.466 5.19784 158.438L5.19299 158.143C5.22441 154.98 7.86679 152.437 11.0937 152.466L14.3873 152.497L12.049 150.159C9.86038 147.973 9.82513 144.501 11.9193 142.271L12.1295 142.06C14.4334 139.844 18.1325 139.876 20.3919 142.133L22.6836 144.422L22.7164 141.077ZM28.5852 138.734C27.232 138.722 26.1278 139.789 26.1146 141.11L26.0813 144.454L26.0211 150.366C25.7908 150.435 25.5614 150.514 25.3338 150.604C25.0438 150.719 24.7634 150.848 24.4938 150.989L20.2589 146.757L17.9672 144.468C17.0233 143.526 15.4744 143.51 14.5082 144.439C13.5434 145.368 13.5313 146.883 14.4738 147.824L16.8114 150.16L21.0329 154.376C20.7694 154.856 20.5542 155.361 20.3904 155.882L14.3564 155.83L11.0619 155.801C9.7086 155.789 8.60382 156.854 8.59071 158.175C8.57776 159.495 9.65894 160.577 11.0105 160.589L14.4218 160.619L20.3561 160.672C20.4341 160.933 20.5268 161.192 20.6325 161.449C20.746 161.726 20.8726 161.993 21.0119 162.251L16.7703 166.333L14.2665 168.742C13.3018 169.67 13.2897 171.185 14.2321 172.127C15.1758 173.068 16.7255 173.085 17.6917 172.157L20.0268 169.907L24.4493 165.652C24.9014 165.893 25.3749 166.093 25.8637 166.251L25.8039 172.32L25.7724 175.477C25.7595 176.797 26.8407 177.88 28.1924 177.892C29.5452 177.903 30.6499 176.838 30.6635 175.517L30.6964 172.15L30.7527 166.368C31.0661 166.284 31.3789 166.184 31.6876 166.062C31.9341 165.964 32.1718 165.853 32.4035 165.736L36.519 169.847L39.0203 172.347C39.964 173.288 41.5136 173.305 42.48 172.377C43.4448 171.448 43.4581 169.932 42.516 168.99L40.0606 166.538L35.9204 162.402C36.2074 161.899 36.442 161.368 36.6177 160.817L42.5157 160.869L46.0674 160.901C47.4205 160.913 48.5248 159.846 48.538 158.525C48.5508 157.206 47.4709 156.123 46.1196 156.111L42.6854 156.081L36.6722 156.027C36.592 155.756 36.4991 155.485 36.3888 155.216C36.2866 154.967 36.1704 154.727 36.047 154.493L40.3368 150.368L42.7217 148.075C43.6866 147.146 43.6995 145.631 42.7576 144.689C41.814 143.747 40.2644 143.73 39.2981 144.659L36.7458 147.115L32.6483 151.056C32.0987 150.755 31.5163 150.517 30.9129 150.342L30.9686 144.702L31.0051 141.148C31.018 139.829 29.9367 138.746 28.5852 138.734Z" fill="#EDEDED"/>
<path d="M70.0172 205.047C75.6735 202.81 78.4099 196.497 76.129 190.948C73.8481 185.4 67.4138 182.715 61.7574 184.953C56.1011 187.19 53.3648 193.502 55.6456 199.051C57.9265 204.6 64.3608 207.285 70.0172 205.047Z" stroke="#EDEDED" stroke-width="3"/>
<path d="M60.0927 177.743C60.1242 174.58 62.7658 172.04 65.9924 172.068C69.2192 172.097 71.8111 174.685 71.7796 177.848L71.7426 181.4L74.294 178.947C76.598 176.73 80.2985 176.762 82.5581 179.018C84.8173 181.277 84.7807 184.903 82.4767 187.12L80.0925 189.415L83.5268 189.445C86.7534 189.473 89.344 192.062 89.3125 195.225L89.3011 195.52C89.1146 198.545 86.5387 200.928 83.4129 200.9L79.8618 200.87L82.3164 203.32C84.5756 205.578 84.5399 209.205 82.2365 211.422L82.0153 211.623C79.7017 213.633 76.1613 213.535 73.9724 211.35L71.4704 208.848L71.4375 212.215C71.4071 215.28 68.9271 217.762 65.8388 217.887L65.5378 217.89C62.311 217.862 59.7215 215.275 59.7526 212.112L59.784 208.955L57.4468 211.202C55.1429 213.418 51.4432 213.385 49.1836 211.128C46.9247 208.87 46.9607 205.245 49.2641 203.028L51.7678 200.62L48.356 200.588C45.2302 200.56 42.701 198.132 42.5741 195.105L42.5693 194.81C42.6008 191.647 45.2431 189.103 48.47 189.133L51.7636 189.163L49.4253 186.827C47.2368 184.64 47.2015 181.168 49.2957 178.938L49.5057 178.727C51.8098 176.51 55.5089 176.542 57.7683 178.8L60.0599 181.088L60.0927 177.743ZM65.9615 175.4C64.6083 175.388 63.5042 176.455 63.4909 177.777L63.4576 181.12L63.3975 187.032C63.1671 187.102 62.9377 187.18 62.7101 187.272C62.4201 187.385 62.1398 187.515 61.8701 187.655L57.6352 183.423L55.3436 181.135C54.3996 180.192 52.8507 180.177 51.8845 181.107C50.9197 182.035 50.9077 183.55 51.8501 184.492L54.1878 186.827L58.4093 191.043C58.1458 191.523 57.9305 192.027 57.7667 192.548L51.7327 192.497L48.4383 192.467C47.0849 192.455 45.9801 193.52 45.967 194.842C45.9541 196.162 47.0353 197.243 48.3868 197.257L51.7981 197.285L57.7324 197.338C57.8104 197.6 57.9031 197.858 58.0088 198.117C58.1223 198.392 58.2489 198.66 58.3882 198.917L54.1467 203L51.6428 205.408C50.6781 206.337 50.6661 207.852 51.6085 208.793C52.5522 209.735 54.1018 209.752 55.068 208.823L57.4032 206.573L61.8256 202.318C62.2777 202.56 62.7512 202.76 63.24 202.917L63.1802 208.987L63.1488 212.143C63.1358 213.463 64.217 214.547 65.5687 214.558C66.9216 214.57 68.0262 213.505 68.0398 212.183L68.0727 208.817L68.129 203.035C68.4424 202.95 68.7552 202.85 69.0639 202.728C69.3104 202.63 69.5481 202.52 69.7798 202.403L73.8953 206.513L76.3966 209.013C77.3404 209.955 78.89 209.972 79.8563 209.043C80.8211 208.115 80.8344 206.598 79.8923 205.657L77.4369 203.205L73.2968 199.068C73.5837 198.565 73.8183 198.035 73.994 197.483L79.892 197.535L83.4438 197.568C84.7968 197.58 85.9011 196.513 85.9143 195.192C85.9271 193.873 84.8472 192.79 83.4959 192.777L80.0617 192.748L74.0485 192.693C73.9684 192.422 73.8754 192.152 73.7652 191.883C73.6629 191.633 73.5467 191.393 73.4233 191.16L77.7131 187.035L80.0981 184.742C81.0629 183.813 81.0758 182.297 80.1339 181.355C79.1903 180.413 77.6408 180.397 76.6744 181.325L74.1221 183.782L70.0246 187.722C69.475 187.422 68.8926 187.183 68.2892 187.008L68.3449 181.368L68.3814 177.815C68.3944 176.495 67.313 175.413 65.9615 175.4Z" fill="#EDEDED"/>
<path d="M32.6408 241.714C38.2972 239.476 41.0335 233.164 38.7527 227.615C36.4718 222.066 30.0374 219.382 24.3811 221.619C18.7248 223.857 15.9884 230.169 18.2693 235.718C20.5501 241.267 26.9845 243.951 32.6408 241.714Z" stroke="#EDEDED" stroke-width="3"/>
<path d="M22.7164 214.41C22.7478 211.247 25.3895 208.707 28.6161 208.735C31.8429 208.763 34.4347 211.352 34.4033 214.515L34.3663 218.067L36.9177 215.613C39.2216 213.397 42.9222 213.428 45.1818 215.685C47.441 217.943 47.4043 221.57 45.1004 223.787L42.7161 226.082L46.1505 226.112C49.3771 226.14 51.9676 228.728 51.9362 231.892L51.9248 232.187C51.7383 235.212 49.1624 237.595 46.0365 237.567L42.4854 237.537L44.94 239.987C47.1993 242.245 47.1636 245.872 44.8602 248.088L44.639 248.29C42.3254 250.3 38.785 250.202 36.5961 248.017L34.0941 245.515L34.0611 248.882C34.0307 251.947 31.5508 254.428 28.4625 254.553L28.1615 254.557C24.9347 254.528 22.3452 251.942 22.3763 248.778L22.4077 245.622L20.0705 247.868C17.7666 250.085 14.0668 250.052 11.8073 247.795C9.54837 245.537 9.58439 241.912 11.8878 239.695L14.3915 237.287L10.9796 237.255C7.85385 237.227 5.32469 234.798 5.19784 231.772L5.19299 231.477C5.22441 228.313 7.86679 225.77 11.0937 225.8L14.3873 225.83L12.049 223.493C9.86038 221.307 9.82513 217.835 11.9193 215.605L12.1295 215.393C14.4334 213.177 18.1325 213.208 20.3919 215.467L22.6836 217.755L22.7164 214.41ZM28.5852 212.067C27.232 212.055 26.1278 213.122 26.1146 214.443L26.0813 217.787L26.0211 223.698C25.7908 223.768 25.5614 223.847 25.3338 223.938C25.0438 224.052 24.7634 224.182 24.4938 224.322L20.2589 220.09L17.9672 217.802C17.0233 216.858 15.4744 216.843 14.5082 217.773C13.5434 218.702 13.5313 220.217 14.4738 221.158L16.8114 223.493L21.0329 227.71C20.7694 228.19 20.5542 228.693 20.3904 229.215L14.3564 229.163L11.0619 229.133C9.7086 229.122 8.60382 230.187 8.59071 231.508C8.57776 232.828 9.65894 233.91 11.0105 233.923L14.4218 233.952L20.3561 234.005C20.4341 234.267 20.5268 234.525 20.6325 234.783C20.746 235.058 20.8726 235.327 21.0119 235.583L16.7703 239.667L14.2665 242.075C13.3018 243.003 13.2897 244.518 14.2321 245.46C15.1758 246.402 16.7255 246.418 17.6917 245.49L20.0268 243.24L24.4493 238.985C24.9014 239.227 25.3749 239.427 25.8637 239.583L25.8039 245.653L25.7724 248.81C25.7595 250.13 26.8407 251.213 28.1924 251.225C29.5452 251.237 30.6499 250.172 30.6635 248.85L30.6964 245.483L30.7527 239.702C31.0661 239.617 31.3789 239.517 31.6876 239.395C31.9341 239.297 32.1718 239.187 32.4035 239.07L36.519 243.18L39.0203 245.68C39.964 246.622 41.5136 246.638 42.48 245.71C43.4448 244.782 43.4581 243.265 42.516 242.323L40.0606 239.872L35.9204 235.735C36.2074 235.232 36.442 234.702 36.6177 234.15L42.5157 234.202L46.0674 234.235C47.4205 234.247 48.5248 233.18 48.538 231.858C48.5508 230.54 47.4709 229.457 46.1196 229.443L42.6854 229.415L36.6722 229.36C36.592 229.088 36.4991 228.818 36.3888 228.55C36.2866 228.3 36.1704 228.06 36.047 227.827L40.3368 223.702L42.7217 221.408C43.6866 220.48 43.6995 218.963 42.7576 218.022C41.814 217.08 40.2644 217.063 39.2981 217.992L36.7458 220.448L32.6483 224.388C32.0987 224.088 31.5163 223.85 30.9129 223.675L30.9686 218.035L31.0051 214.482C31.018 213.162 29.9367 212.08 28.5852 212.067Z" fill="#EDEDED"/>
<path d="M70.0172 278.381C75.6735 276.143 78.4099 269.831 76.129 264.282C73.8481 258.733 67.4138 256.049 61.7574 258.286C56.1011 260.524 53.3648 266.836 55.6456 272.385C57.9265 277.934 64.3608 280.618 70.0172 278.381Z" stroke="#EDEDED" stroke-width="3"/>
<path d="M60.0927 251.077C60.1242 247.913 62.7658 245.373 65.9924 245.402C69.2192 245.43 71.8111 248.018 71.7796 251.182L71.7426 254.733L74.294 252.28C76.598 250.063 80.2985 250.095 82.5581 252.352C84.8173 254.61 84.7807 258.237 82.4767 260.453L80.0925 262.748L83.5268 262.778C86.7534 262.807 89.344 265.395 89.3125 268.558L89.3011 268.853C89.1146 271.878 86.5387 274.262 83.4129 274.233L79.8618 274.203L82.3164 276.653C84.5756 278.912 84.5399 282.538 82.2365 284.755L82.0153 284.957C79.7017 286.967 76.1613 286.868 73.9724 284.683L71.4704 282.182L71.4375 285.548C71.4071 288.613 68.9271 291.095 65.8388 291.22L65.5378 291.223C62.311 291.195 59.7215 288.608 59.7526 285.445L59.784 282.288L57.4468 284.535C55.1429 286.752 51.4432 286.718 49.1836 284.462C46.9247 282.203 46.9607 278.578 49.2641 276.362L51.7678 273.953L48.356 273.922C45.2302 273.893 42.701 271.465 42.5741 268.438L42.5693 268.143C42.6008 264.98 45.2431 262.437 48.47 262.467L51.7636 262.497L49.4253 260.16C47.2368 257.973 47.2015 254.502 49.2957 252.272L49.5057 252.06C51.8098 249.843 55.5089 249.875 57.7683 252.133L60.0599 254.422L60.0927 251.077ZM65.9615 248.733C64.6083 248.722 63.5042 249.788 63.4909 251.11L63.4576 254.453L63.3975 260.365C63.1671 260.435 62.9377 260.513 62.7101 260.605C62.4201 260.718 62.1398 260.848 61.8701 260.988L57.6352 256.757L55.3436 254.468C54.3996 253.525 52.8507 253.51 51.8845 254.44C50.9197 255.368 50.9077 256.883 51.8501 257.825L54.1878 260.16L58.4093 264.377C58.1458 264.857 57.9305 265.36 57.7667 265.882L51.7327 265.83L48.4383 265.8C47.0849 265.788 45.9801 266.853 45.967 268.175C45.9541 269.495 47.0353 270.577 48.3868 270.59L51.7981 270.618L57.7324 270.672C57.8104 270.933 57.9031 271.192 58.0088 271.45C58.1223 271.725 58.2489 271.993 58.3882 272.25L54.1467 276.333L51.6428 278.742C50.6781 279.67 50.6661 281.185 51.6085 282.127C52.5522 283.068 54.1018 283.085 55.068 282.157L57.4032 279.907L61.8256 275.652C62.2777 275.893 62.7512 276.093 63.24 276.25L63.1802 282.32L63.1488 285.477C63.1358 286.797 64.217 287.88 65.5687 287.892C66.9216 287.903 68.0262 286.838 68.0398 285.517L68.0727 282.15L68.129 276.368C68.4424 276.283 68.7552 276.183 69.0639 276.062C69.3104 275.963 69.5481 275.853 69.7798 275.737L73.8953 279.847L76.3966 282.347C77.3404 283.288 78.89 283.305 79.8563 282.377C80.8211 281.448 80.8344 279.932 79.8923 278.99L77.4369 276.538L73.2968 272.402C73.5837 271.898 73.8183 271.368 73.994 270.817L79.892 270.868L83.4438 270.902C84.7968 270.913 85.9011 269.847 85.9143 268.525C85.9271 267.207 84.8472 266.123 83.4959 266.11L80.0617 266.082L74.0485 266.027C73.9684 265.755 73.8754 265.485 73.7652 265.217C73.6629 264.967 73.5467 264.727 73.4233 264.493L77.7131 260.368L80.0981 258.075C81.0629 257.147 81.0758 255.63 80.1339 254.688C79.1903 253.747 77.6408 253.73 76.6744 254.658L74.1221 257.115L70.0246 261.055C69.475 260.755 68.8926 260.517 68.2892 260.342L68.3449 254.702L68.3814 251.148C68.3944 249.828 67.313 248.747 65.9615 248.733Z" fill="#EDEDED"/>
<path d="M70.0172 58.3802C75.6735 56.1426 78.4099 49.8304 76.129 44.2815C73.8481 38.7326 67.4138 36.0482 61.7574 38.2857C56.1011 40.5233 53.3648 46.8355 55.6456 52.3844C57.9265 57.9333 64.3608 60.6177 70.0172 58.3802Z" stroke="#EDEDED" stroke-width="3"/>
<path d="M60.0927 31.0768C60.1242 27.9135 62.7658 25.373 65.9924 25.4015C69.2192 25.4303 71.8111 28.018 71.7796 31.1813L71.7426 34.734L74.294 32.2803C76.598 30.0638 80.2985 30.0956 82.5581 32.3526C84.8173 34.6098 84.7807 38.2376 82.4767 40.4541L80.0925 42.7486L83.5268 42.7781C86.7534 42.8073 89.344 45.3955 89.3125 48.5586L89.3011 48.8528C89.1146 51.8778 86.5387 54.2615 83.4129 54.234L79.8618 54.2031L82.3164 56.6543C84.5756 58.9113 84.5399 62.5385 82.2365 64.7551L82.0153 64.9568C79.7017 66.9675 76.1613 66.8691 73.9724 64.6828L71.4704 62.182L71.4375 65.5488C71.4071 68.6131 68.9271 71.0946 65.8388 71.2208L65.5378 71.2242C62.311 71.1953 59.7215 68.6083 59.7526 65.4452L59.784 62.2878L57.4468 64.5357C55.1429 66.752 51.4432 66.718 49.1836 64.4612C46.9247 62.2042 46.9607 58.5783 49.2641 56.3618L51.7678 53.9535L48.356 53.922C45.2302 53.8941 42.701 51.4658 42.5741 48.4383L42.5693 48.1436C42.6008 44.9801 45.2431 42.4375 48.47 42.4661L51.7636 42.497L49.4253 40.1596C47.2368 37.973 47.2015 34.5015 49.2957 32.2715L49.5057 32.0603C51.8098 29.8436 55.5089 29.876 57.7683 32.1331L60.0599 34.4223L60.0927 31.0768ZM65.9615 28.734C64.6083 28.7223 63.5042 29.7888 63.4909 31.1101L63.4576 34.4542L63.3975 40.3658C63.1671 40.4353 62.9377 40.5143 62.7101 40.6043C62.4201 40.7191 62.1398 40.8478 61.8701 40.9893L57.6352 36.7575L55.3436 34.4682C54.3996 33.526 52.8507 33.5101 51.8845 34.4396C50.9197 35.3681 50.9077 36.883 51.8501 37.8245L54.1878 40.1605L58.4093 44.3766C58.1458 44.8565 57.9305 45.361 57.7667 45.882L51.7327 45.8296L48.4383 45.8008C47.0849 45.789 45.9801 46.8541 45.967 48.1753C45.9541 49.4948 47.0353 50.5773 48.3868 50.5893L51.7981 50.6193L57.7324 50.6726C57.8104 50.9331 57.9031 51.1925 58.0088 51.4495C58.1223 51.7258 58.2489 51.9932 58.3882 52.2507L54.1467 56.3328L51.6428 58.7413C50.6781 59.6698 50.6661 61.1846 51.6085 62.1261C52.5522 63.0685 54.1018 63.0856 55.068 62.1563L57.4032 59.9075L61.8256 55.652C62.2777 55.893 62.7512 56.0933 63.24 56.2508L63.1802 62.3202L63.1488 65.4775C63.1358 66.797 64.217 67.8795 65.5687 67.8915C66.9216 67.9033 68.0262 66.8378 68.0398 65.517L68.0727 62.1503L68.129 56.3683C68.4424 56.2836 68.7552 56.1837 69.0639 56.0617C69.3104 55.9642 69.5481 55.8533 69.7798 55.7363L73.8953 59.847L76.3966 62.3463C77.3404 63.2886 78.89 63.3055 79.8563 62.3763C80.8211 61.448 80.8344 59.9325 79.8923 58.991L77.4369 56.5383L73.2968 52.4023C73.5837 51.8987 73.8183 51.3678 73.994 50.8173L79.892 50.8691L83.4438 50.9015C84.7968 50.9131 85.9011 49.8465 85.9143 48.5253C85.9271 47.2063 84.8472 46.1231 83.4959 46.1108L80.0617 46.0811L74.0485 46.0275C73.9684 45.7556 73.8754 45.4846 73.7652 45.2165C73.6629 44.9675 73.5467 44.7271 73.4233 44.4935L77.7131 40.3676L80.0981 38.0748C81.0629 37.1465 81.0758 35.6308 80.1339 34.6893C79.1903 33.7467 77.6408 33.73 76.6744 34.6591L74.1221 37.1148L70.0246 41.0558C69.475 40.7555 68.8926 40.5168 68.2892 40.3418L68.3449 34.7021L68.3814 31.1481C68.3944 29.8288 67.313 28.7463 65.9615 28.734Z" fill="#EDEDED"/>
</g>
<path d="M293.543 261.667C299.173 261.667 303.737 266.144 303.737 271.667C303.737 277.19 299.173 281.667 293.543 281.667C287.913 281.667 283.349 277.19 283.349 271.667C283.349 266.144 287.913 261.667 293.543 261.667Z" fill="url(#paint2_radial_84_2)"/>
<path d="M319.015 285.943L330.756 278.447L322.438 267.388L310.695 274.887L319.015 285.943Z" fill="url(#paint3_radial_84_2)"/>
<path d="M449.844 330.833C443.473 321.707 439.544 318.413 432.005 315C439.03 327.377 440.787 333.845 442.199 345C421.878 309.048 405.609 300.3 372.881 293.333C415.662 292.753 435.864 296.955 449.844 330.833Z" fill="url(#paint4_linear_84_2)"/>
<path d="M365.722 285.15C366.739 286.778 366.157 288.91 364.446 289.822L360.114 292.128C359.747 292.323 359.42 292.582 359.15 292.893L355.95 296.57C354.686 298.022 352.438 298.138 351.026 296.823L347.452 293.495C347.149 293.213 346.797 292.988 346.412 292.832L341.859 290.982C340.06 290.252 339.253 288.19 340.092 286.467L342.214 282.103C342.394 281.733 342.503 281.337 342.535 280.928L342.921 276.108C343.073 274.205 344.822 272.815 346.752 273.065L351.639 273.697C352.052 273.75 352.472 273.728 352.876 273.633L357.669 272.503C359.561 272.057 361.449 273.26 361.804 275.137L362.701 279.892C362.778 280.293 362.927 280.678 363.146 281.027L365.722 285.15Z" fill="url(#paint5_radial_84_2)"/>
<path d="M353.89 304.235L333.791 291.43L339.995 268.72L363.928 267.488L372.516 289.438L353.89 304.235ZM367.405 282.968C368.168 280.178 367.013 277.223 364.544 275.652L356.075 270.257C353.607 268.683 350.384 268.85 348.097 270.667L340.25 276.9C337.963 278.718 337.127 281.775 338.182 284.472L341.801 293.718C342.856 296.415 345.562 298.138 348.502 297.987L358.585 297.47C361.524 297.318 364.031 295.327 364.793 292.537L367.405 282.968Z" fill="url(#paint6_radial_84_2)"/>
<path d="M371.694 286.667C374.508 286.667 376.79 288.905 376.79 291.667C376.79 294.428 374.508 296.667 371.694 296.667C368.879 296.667 366.597 294.428 366.597 291.667C366.597 288.905 368.879 286.667 371.694 286.667Z" fill="url(#paint7_radial_84_2)"/>
<defs>
<linearGradient id="paint0_linear_84_2" x1="42.1025" y1="152.505" x2="59.0918" y2="152.505" gradientUnits="userSpaceOnUse">
<stop stop-color="#761011"/>
<stop offset="0.5" stop-color="#A91718"/>
<stop offset="1" stop-color="#761011"/>
</linearGradient>
<linearGradient id="paint1_linear_84_2" x1="76.081" y1="134.167" x2="25.1133" y2="134.167" gradientUnits="userSpaceOnUse">
<stop stop-color="#4B7D75"/>
<stop offset="0.5" stop-color="#559187"/>
<stop offset="1" stop-color="#4B7D75"/>
</linearGradient>
<radialGradient id="paint2_radial_84_2" cx="0" cy="0" r="1" gradientUnits="userSpaceOnUse" gradientTransform="translate(293.543 271.667) rotate(90) scale(10 10.1935)">
<stop stop-color="#84D7B9"/>
<stop offset="0.684187" stop-color="#65A48D"/>
<stop offset="1" stop-color="#457161"/>
</radialGradient>
<radialGradient id="paint3_radial_84_2" cx="0" cy="0" r="1" gradientTransform="matrix(-5.58417 5.47814 -5.92291 -5.81045 320.726 276.667)" gradientUnits="userSpaceOnUse">
<stop stop-color="#84D7B9"/>
<stop offset="0.632181" stop-color="#65A48D"/>
<stop offset="1" stop-color="#457161"/>
</radialGradient>
<linearGradient id="paint4_linear_84_2" x1="411.363" y1="293.285" x2="411.363" y2="345" gradientUnits="userSpaceOnUse">
<stop stop-color="#569D8D"/>
<stop offset="1" stop-color="#4D8578"/>
</linearGradient>
<radialGradient id="paint5_radial_84_2" cx="0" cy="0" r="1" gradientTransform="matrix(-10.8866 -1.99888 2.03757 -10.6799 352.824 284.263)" gradientUnits="userSpaceOnUse">
<stop stop-color="#FF8502"/>
<stop offset="1" stop-color="#A66B28"/>
</radialGradient>
<radialGradient id="paint6_radial_84_2" cx="0" cy="0" r="1" gradientTransform="matrix(-15.9312 -4.1877 4.48864 -16.4338 352.824 284.263)" gradientUnits="userSpaceOnUse">
<stop stop-color="#FF8502"/>
<stop offset="0.918433" stop-color="#EB8A1E"/>
<stop offset="1" stop-color="#A66C28"/>
</radialGradient>
<radialGradient id="paint7_radial_84_2" cx="0" cy="0" r="1" gradientUnits="userSpaceOnUse" gradientTransform="translate(371.694 291.667) rotate(90) scale(5 5.09677)">
<stop stop-color="#91342C"/>
<stop offset="1" stop-color="#600F03"/>
</radialGradient>
</defs>
</svg>
