<svg width="430" height="604" viewBox="0 0 430 604" fill="none" xmlns="http://www.w3.org/2000/svg">
<rect x="37" y="108" width="355" height="30" fill="#B3B3B3"/>
<rect x="37" y="108" width="355" height="30" fill="url(#paint0_linear_116_47)"/>
<path d="M68 107.5L214.75 4L361.5 107.5" stroke="#FF471B" stroke-width="2"/>
<path d="M392 111.719L421 109V138L392 134.375V111.719Z" fill="url(#paint1_linear_116_47)"/>
<path d="M37 111.719L8 109V138L37 134.375V111.719Z" fill="url(#paint2_linear_116_47)"/>
<path d="M37 134V262" stroke="#FF471B" stroke-width="2"/>
<path d="M37 340.5V492.5" stroke="#FF471B" stroke-width="2"/>
<rect x="11.5575" y="303.784" width="36.1479" height="36.1479" rx="1" transform="rotate(-45 11.5575 303.784)" stroke="#FF471B" stroke-width="2"/>
<rect x="13.0915" y="303.784" width="17.0739" height="17.0739" transform="rotate(-45 13.0915 303.784)" stroke="#FF471B" stroke-width="2"/>
<rect x="24.9155" y="316.642" width="17.0739" height="17.0739" transform="rotate(-45 24.9155 316.642)" stroke="#FF471B" stroke-width="2"/>
<rect x="36.7395" y="303.642" width="17.0739" height="17.0739" transform="rotate(-45 36.7395 303.642)" stroke="#FF471B" stroke-width="2"/>
<rect x="24.9155" y="290.642" width="17.0739" height="17.0739" transform="rotate(-45 24.9155 290.642)" stroke="#FF471B" stroke-width="2"/>
<path d="M36.9028 277.817C37.282 277.817 37.7078 277.657 38.1714 277.289C38.6361 276.919 39.0883 276.377 39.4868 275.727C40.2976 274.405 40.7621 272.849 40.7622 271.873C40.7622 270.107 39.1365 268.5 36.9028 268.5C34.669 268.5 33.0425 270.107 33.0425 271.873C33.0426 272.849 33.508 274.405 34.3188 275.727C34.7174 276.377 35.1686 276.919 35.6333 277.289C36.0971 277.658 36.5235 277.817 36.9028 277.817Z" stroke="#FF471B" stroke-width="2"/>
<path d="M36.9028 330.183C37.282 330.183 37.7078 330.343 38.1714 330.711C38.6361 331.081 39.0883 331.623 39.4868 332.273C40.2976 333.595 40.7621 335.151 40.7622 336.127C40.7622 337.893 39.1365 339.5 36.9028 339.5C34.669 339.5 33.0425 337.893 33.0425 336.127C33.0426 335.151 33.508 333.595 34.3188 332.273C34.7174 331.623 35.1686 331.081 35.6333 330.711C36.0971 330.342 36.5235 330.183 36.9028 330.183Z" stroke="#FF471B" stroke-width="2"/>
<path d="M10.171 291.164C13.9596 286.759 20.1331 286.37 24.3423 290.061L12.9813 302.552C8.78469 301.224 7.0083 295.594 9.74257 291.675L9.78266 291.616L10.171 291.164Z" stroke="#FF471B" stroke-width="2.5"/>
<path d="M64.1869 290.849C60.4845 286.412 54.3454 285.971 50.1615 289.626L61.7209 302.335C65.8617 301.052 67.5894 295.466 64.8276 291.657L64.6068 291.353L64.1869 290.849Z" stroke="#FF471B" stroke-width="2.5"/>
<path d="M10.1468 316.288C13.9907 320.672 20.1857 321.027 24.4108 317.313L13.3521 305.154C9.15878 306.536 7.3734 312.164 10.0325 316.158L10.1468 316.288Z" stroke="#FF471B" stroke-width="2.5"/>
<path d="M63.7051 317.133C59.8293 321.352 53.6838 321.527 49.6173 317.657L60.9145 305.236C65.1636 306.589 66.9922 312.259 64.2834 316.275L63.7051 317.133Z" stroke="#FF471B" stroke-width="2.5"/>
<circle cx="37" cy="263.5" r="4" fill="#D9D9D9"/>
<circle cx="37" cy="263.5" r="4" fill="url(#paint3_radial_116_47)"/>
<circle cx="37" cy="380.5" r="6" fill="#D9D9D9"/>
<circle cx="37" cy="380.5" r="6" fill="url(#paint4_radial_116_47)"/>
<path d="M29.1 458.399L36.8995 448.5L44.5 458.399L36.8995 468.299L29.1 458.399Z" fill="#D9D9D9"/>
<path d="M29.1 458.399L36.8995 448.5L44.5 458.399L36.8995 468.299L29.1 458.399Z" fill="url(#paint5_radial_116_47)"/>
<rect x="31" y="492.5" width="12" height="24" rx="2" fill="#FF471B"/>
<path d="M33 513.5C30.6791 525.544 26.2516 560.405 27.1085 603.5" stroke="#FF471B" stroke-width="2"/>
<path d="M41 513.5C43.3209 525.544 47.7484 560.405 46.8915 603.5" stroke="#FF471B" stroke-width="2"/>
<path d="M35 513.5C33.4527 525.544 30.5011 560.405 31.0724 603.5" stroke="#FF471B" stroke-width="2"/>
<path d="M40 513.5C41.5473 525.544 44.4989 560.405 43.9276 603.5" stroke="#FF471B" stroke-width="2"/>
<path d="M36 513.5C35.2264 525.544 33.7505 560.405 34.0362 603.5" stroke="#FF471B" stroke-width="2"/>
<path d="M39 513.5C39.7736 525.544 41.2495 560.405 40.9638 603.5" stroke="#FF471B" stroke-width="2"/>
<path d="M38 513.5C37.6132 525.544 36.8753 560.405 37.0181 603.5" stroke="#FF471B" stroke-width="2"/>
<path d="M392 134V262" stroke="#FF471B" stroke-width="2"/>
<path d="M392 340.5V492.5" stroke="#FF471B" stroke-width="2"/>
<rect x="366.558" y="303.784" width="36.1479" height="36.1479" rx="1" transform="rotate(-45 366.558 303.784)" stroke="#FF471B" stroke-width="2"/>
<rect x="368.092" y="303.784" width="17.0739" height="17.0739" transform="rotate(-45 368.092 303.784)" stroke="#FF471B" stroke-width="2"/>
<rect x="379.916" y="316.642" width="17.0739" height="17.0739" transform="rotate(-45 379.916 316.642)" stroke="#FF471B" stroke-width="2"/>
<rect x="391.74" y="303.642" width="17.0739" height="17.0739" transform="rotate(-45 391.74 303.642)" stroke="#FF471B" stroke-width="2"/>
<rect x="379.916" y="290.642" width="17.0739" height="17.0739" transform="rotate(-45 379.916 290.642)" stroke="#FF471B" stroke-width="2"/>
<path d="M391.903 277.817C392.282 277.817 392.708 277.657 393.171 277.289C393.636 276.919 394.088 276.377 394.487 275.727C395.298 274.405 395.762 272.849 395.762 271.873C395.762 270.107 394.137 268.5 391.903 268.5C389.669 268.5 388.042 270.107 388.042 271.873C388.043 272.849 388.508 274.405 389.319 275.727C389.717 276.377 390.169 276.919 390.633 277.289C391.097 277.658 391.524 277.817 391.903 277.817Z" stroke="#FF471B" stroke-width="2"/>
<path d="M391.903 330.183C392.282 330.183 392.708 330.343 393.171 330.711C393.636 331.081 394.088 331.623 394.487 332.273C395.298 333.595 395.762 335.151 395.762 336.127C395.762 337.893 394.137 339.5 391.903 339.5C389.669 339.5 388.042 337.893 388.042 336.127C388.043 335.151 388.508 333.595 389.319 332.273C389.717 331.623 390.169 331.081 390.633 330.711C391.097 330.342 391.524 330.183 391.903 330.183Z" stroke="#FF471B" stroke-width="2"/>
<path d="M365.171 291.164C368.96 286.759 375.133 286.37 379.342 290.061L367.981 302.552C363.785 301.224 362.008 295.594 364.743 291.675L364.783 291.616L365.171 291.164Z" stroke="#FF471B" stroke-width="2.5"/>
<path d="M419.187 290.849C415.484 286.412 409.345 285.971 405.161 289.626L416.721 302.335C420.862 301.052 422.589 295.466 419.828 291.657L419.607 291.353L419.187 290.849Z" stroke="#FF471B" stroke-width="2.5"/>
<path d="M365.147 316.288C368.991 320.672 375.186 321.027 379.411 317.313L368.352 305.154C364.159 306.536 362.373 312.164 365.033 316.158L365.147 316.288Z" stroke="#FF471B" stroke-width="2.5"/>
<path d="M418.705 317.133C414.829 321.352 408.684 321.527 404.617 317.657L415.915 305.236C420.164 306.589 421.992 312.259 419.283 316.275L418.705 317.133Z" stroke="#FF471B" stroke-width="2.5"/>
<circle cx="392" cy="263.5" r="4" fill="#D9D9D9"/>
<circle cx="392" cy="263.5" r="4" fill="url(#paint6_radial_116_47)"/>
<circle cx="392" cy="380.5" r="6" fill="#D9D9D9"/>
<circle cx="392" cy="380.5" r="6" fill="url(#paint7_radial_116_47)"/>
<path d="M384.1 458.399L391.899 448.5L399.5 458.399L391.899 468.299L384.1 458.399Z" fill="#D9D9D9"/>
<path d="M384.1 458.399L391.899 448.5L399.5 458.399L391.899 468.299L384.1 458.399Z" fill="url(#paint8_radial_116_47)"/>
<rect x="386" y="492.5" width="12" height="24" rx="2" fill="#FF471B"/>
<path d="M388 513.5C385.679 525.544 381.252 560.405 382.109 603.5" stroke="#FF471B" stroke-width="2"/>
<path d="M396 513.5C398.321 525.544 402.748 560.405 401.891 603.5" stroke="#FF471B" stroke-width="2"/>
<path d="M390 513.5C388.453 525.544 385.501 560.405 386.072 603.5" stroke="#FF471B" stroke-width="2"/>
<path d="M395 513.5C396.547 525.544 399.499 560.405 398.928 603.5" stroke="#FF471B" stroke-width="2"/>
<path d="M391 513.5C390.226 525.544 388.751 560.405 389.036 603.5" stroke="#FF471B" stroke-width="2"/>
<path d="M394 513.5C394.774 525.544 396.249 560.405 395.964 603.5" stroke="#FF471B" stroke-width="2"/>
<path d="M393 513.5C392.613 525.544 391.875 560.405 392.018 603.5" stroke="#FF471B" stroke-width="2"/>
<circle cx="215" cy="6" r="6" fill="#7E1112"/>
<defs>
<linearGradient id="paint0_linear_116_47" x1="215" y1="138" x2="215" y2="108" gradientUnits="userSpaceOnUse">
<stop stop-color="#4B7D75"/>
<stop offset="0.5" stop-color="#559187"/>
<stop offset="1" stop-color="#4B7D75"/>
</linearGradient>
<linearGradient id="paint1_linear_116_47" x1="407" y1="109" x2="407" y2="138" gradientUnits="userSpaceOnUse">
<stop stop-color="#761011"/>
<stop offset="0.5" stop-color="#A91718"/>
<stop offset="1" stop-color="#761011"/>
</linearGradient>
<linearGradient id="paint2_linear_116_47" x1="22" y1="109" x2="22" y2="138" gradientUnits="userSpaceOnUse">
<stop stop-color="#761011"/>
<stop offset="0.5" stop-color="#A91718"/>
<stop offset="1" stop-color="#761011"/>
</linearGradient>
<radialGradient id="paint3_radial_116_47" cx="0" cy="0" r="1" gradientTransform="matrix(-3.29095 -0.63134 0.615944 -3.37321 36.9493 263.244)" gradientUnits="userSpaceOnUse">
<stop stop-color="#FF8502"/>
<stop offset="1" stop-color="#A66B28"/>
</radialGradient>
<radialGradient id="paint4_radial_116_47" cx="0" cy="0" r="1" gradientTransform="matrix(-4.93642 -0.947009 0.923916 -5.05981 36.9239 380.116)" gradientUnits="userSpaceOnUse">
<stop stop-color="#FF8502"/>
<stop offset="1" stop-color="#A66B28"/>
</radialGradient>
<radialGradient id="paint5_radial_116_47" cx="0" cy="0" r="1" gradientTransform="matrix(0.167076 5.67834 -6.02279 -0.17721 36.8999 458.4)" gradientUnits="userSpaceOnUse">
<stop stop-color="#84D7B9"/>
<stop offset="0.632181" stop-color="#65A48D"/>
<stop offset="1" stop-color="#457161"/>
</radialGradient>
<radialGradient id="paint6_radial_116_47" cx="0" cy="0" r="1" gradientTransform="matrix(-3.29095 -0.63134 0.615944 -3.37321 391.949 263.244)" gradientUnits="userSpaceOnUse">
<stop stop-color="#FF8502"/>
<stop offset="1" stop-color="#A66B28"/>
</radialGradient>
<radialGradient id="paint7_radial_116_47" cx="0" cy="0" r="1" gradientTransform="matrix(-4.93642 -0.947009 0.923916 -5.05981 391.924 380.116)" gradientUnits="userSpaceOnUse">
<stop stop-color="#FF8502"/>
<stop offset="1" stop-color="#A66B28"/>
</radialGradient>
<radialGradient id="paint8_radial_116_47" cx="0" cy="0" r="1" gradientTransform="matrix(0.167076 5.67834 -6.02279 -0.17721 391.9 458.4)" gradientUnits="userSpaceOnUse">
<stop stop-color="#84D7B9"/>
<stop offset="0.632181" stop-color="#65A48D"/>
<stop offset="1" stop-color="#457161"/>
</radialGradient>
</defs>
</svg>
