<svg width="57" height="760" viewBox="0 0 57 760" fill="none" xmlns="http://www.w3.org/2000/svg">
<rect x="37.4047" y="22.0503" width="715.899" height="18.8825" transform="rotate(90 37.4047 22.0503)" fill="url(#paint0_linear_241_2)"/>
<rect x="56.6475" y="44.5786" width="670.843" height="56.6475" rx="2" transform="rotate(90 56.6475 44.5786)" fill="url(#paint1_linear_241_2)"/>
<rect x="19.6" y="760" width="11" height="16.8" rx="3" transform="rotate(-90 19.6 760)" fill="url(#paint2_linear_241_2)"/>
<rect x="14" y="754.5" width="16.5" height="28" rx="3" transform="rotate(-90 14 754.5)" fill="url(#paint3_radial_241_2)"/>
<rect width="11" height="16.8" rx="3" transform="matrix(0 1 1 0 19.6 0)" fill="url(#paint4_linear_241_2)"/>
<rect width="16.5" height="28" rx="3" transform="matrix(0 1 1 0 14 5.5)" fill="url(#paint5_radial_241_2)"/>
<defs>
<linearGradient id="paint0_linear_241_2" x1="395.354" y1="22.1546" x2="395.354" y2="40.9328" gradientUnits="userSpaceOnUse">
<stop stop-color="#761011"/>
<stop offset="0.66" stop-color="#A91718"/>
<stop offset="1" stop-color="#761011"/>
</linearGradient>
<linearGradient id="paint1_linear_241_2" x1="392.069" y1="101.226" x2="392.069" y2="44.2261" gradientUnits="userSpaceOnUse">
<stop stop-color="#4B7D75"/>
<stop offset="0.44" stop-color="#559187"/>
<stop offset="1" stop-color="#4B7D75"/>
</linearGradient>
<linearGradient id="paint2_linear_241_2" x1="25.1" y1="760" x2="25.1" y2="776.8" gradientUnits="userSpaceOnUse">
<stop stop-color="#D2AC51"/>
<stop offset="0.355769" stop-color="#FFDA82"/>
<stop offset="1" stop-color="#D2AC51"/>
</linearGradient>
<radialGradient id="paint3_radial_241_2" cx="0" cy="0" r="1" gradientUnits="userSpaceOnUse" gradientTransform="translate(22.5 768.5) rotate(-90.8594) scale(16.6685 8.50682)">
<stop stop-color="#FFD952"/>
<stop offset="1" stop-color="#E2863B"/>
</radialGradient>
<linearGradient id="paint4_linear_241_2" x1="5.5" y1="0" x2="5.5" y2="16.8" gradientUnits="userSpaceOnUse">
<stop stop-color="#D2AC51"/>
<stop offset="0.355769" stop-color="#FFDA82"/>
<stop offset="1" stop-color="#D2AC51"/>
</linearGradient>
<radialGradient id="paint5_radial_241_2" cx="0" cy="0" r="1" gradientUnits="userSpaceOnUse" gradientTransform="translate(8.5 14) rotate(-90.8594) scale(16.6685 8.50682)">
<stop stop-color="#FFD952"/>
<stop offset="1" stop-color="#E2863B"/>
</radialGradient>
</defs>
</svg>
